<svg width="979" height="425" viewBox="0 0 979 425" fill="none" xmlns="http://www.w3.org/2000/svg">
<g clip-path="url(#clip0)">
<path d="M883.382 175.258H308.805C306.366 175.258 304.026 176.227 302.301 177.952C300.576 179.677 299.607 182.017 299.607 184.457C299.607 186.896 300.576 189.236 302.301 190.961C304.026 192.686 306.366 193.655 308.805 193.655H325.08V413.721C325.08 416.161 326.05 418.5 327.775 420.226C329.5 421.951 331.84 422.92 334.279 422.92C336.719 422.92 339.059 421.951 340.784 420.226C342.509 418.5 343.478 416.161 343.478 413.721L343.618 193.655H804.774L847.294 413.721C847.294 416.161 848.263 418.5 849.988 420.226C851.713 421.951 854.053 422.92 856.493 422.92C858.932 422.92 861.272 421.951 862.997 420.226C864.722 418.5 865.691 416.161 865.691 413.721L868.368 193.655H883.382C885.821 193.655 888.161 192.686 889.886 190.961C891.611 189.236 892.58 186.896 892.58 184.457C892.58 182.017 891.611 179.677 889.886 177.952C888.161 176.227 885.821 175.258 883.382 175.258V175.258Z" fill="#CCCCCC"/>
<path d="M408.401 134.269V173.223H310.804C308.247 173.312 305.696 172.897 303.299 172C300.902 171.104 298.705 169.744 296.833 167.998C294.962 166.252 293.452 164.155 292.391 161.826C291.33 159.497 290.738 156.982 290.649 154.424C290.56 151.866 290.976 149.316 291.873 146.918C292.769 144.521 294.129 142.324 295.875 140.453C297.621 138.581 299.718 137.072 302.047 136.011C304.376 134.95 306.891 134.358 309.449 134.269C309.901 134.253 310.352 134.253 310.804 134.269L408.401 134.269Z" fill="#F2F2F2"/>
<path d="M410.798 172.924C410.798 173.321 410.64 173.702 410.359 173.983C410.078 174.264 409.697 174.422 409.3 174.422H309.066C303.625 174.418 298.408 172.254 294.561 168.405C290.715 164.556 288.554 159.337 288.554 153.896C288.554 148.455 290.715 143.236 294.561 139.387C298.408 135.538 303.625 133.374 309.066 133.37H409.3C409.497 133.369 409.692 133.408 409.874 133.483C410.056 133.558 410.222 133.668 410.362 133.807C410.501 133.946 410.612 134.112 410.687 134.294C410.763 134.476 410.802 134.671 410.802 134.868C410.802 135.065 410.763 135.26 410.687 135.442C410.612 135.624 410.501 135.79 410.362 135.929C410.222 136.068 410.056 136.178 409.874 136.253C409.692 136.328 409.497 136.367 409.3 136.366H309.066C304.422 136.373 299.97 138.223 296.688 141.51C293.406 144.797 291.563 149.251 291.563 153.896C291.563 158.54 293.406 162.995 296.688 166.282C299.97 169.569 304.422 171.419 309.066 171.426H409.3C409.697 171.426 410.078 171.584 410.359 171.865C410.64 172.146 410.798 172.527 410.798 172.924V172.924Z" fill="#059669"/>
<path d="M408.401 143.258H303.522C303.443 143.259 303.367 143.228 303.311 143.172C303.254 143.116 303.222 143.041 303.221 142.961C303.22 142.882 303.251 142.806 303.307 142.749C303.362 142.693 303.438 142.66 303.517 142.659H408.401C408.48 142.66 408.555 142.692 408.61 142.748C408.666 142.804 408.697 142.88 408.697 142.959C408.697 143.038 408.666 143.113 408.61 143.17C408.555 143.226 408.48 143.258 408.401 143.258Z" fill="#CCCCCC"/>
<path d="M408.401 150.45H303.522C303.443 150.45 303.367 150.419 303.311 150.364C303.254 150.308 303.222 150.232 303.221 150.153C303.22 150.074 303.251 149.998 303.307 149.941C303.362 149.884 303.438 149.852 303.517 149.851H408.401C408.48 149.851 408.555 149.883 408.61 149.94C408.666 149.996 408.697 150.071 408.697 150.15C408.697 150.229 408.666 150.305 408.61 150.361C408.555 150.417 408.48 150.449 408.401 150.45Z" fill="#CCCCCC"/>
<path d="M408.401 157.642H303.522C303.443 157.642 303.367 157.611 303.311 157.555C303.254 157.5 303.222 157.424 303.221 157.345C303.22 157.265 303.251 157.189 303.307 157.132C303.362 157.076 303.438 157.043 303.517 157.042H408.401C408.48 157.043 408.555 157.075 408.61 157.131C408.666 157.187 408.697 157.263 408.697 157.342C408.697 157.421 408.666 157.497 408.61 157.553C408.555 157.609 408.48 157.641 408.401 157.642Z" fill="#CCCCCC"/>
<path d="M408.401 164.833H303.522C303.443 164.834 303.367 164.803 303.311 164.747C303.254 164.691 303.222 164.616 303.221 164.536C303.22 164.457 303.251 164.381 303.307 164.324C303.362 164.267 303.438 164.235 303.517 164.234H408.401C408.48 164.235 408.555 164.267 408.61 164.323C408.666 164.379 408.697 164.455 408.697 164.534C408.697 164.612 408.666 164.688 408.61 164.744C408.555 164.8 408.48 164.832 408.401 164.833Z" fill="#CCCCCC"/>
<path d="M390.003 93.2276V132.182H292.407C287.241 132.362 282.215 130.482 278.436 126.957C274.656 123.431 272.431 118.548 272.252 113.383C272.072 108.217 273.952 103.191 277.477 99.4115C281.003 95.6317 285.886 93.4073 291.051 93.2276C291.503 93.2119 291.955 93.2119 292.407 93.2276H390.003Z" fill="#F2F2F2"/>
<path d="M392.4 131.883C392.4 132.28 392.242 132.661 391.961 132.942C391.68 133.223 391.299 133.381 390.902 133.381H290.668C285.224 133.381 280.004 131.218 276.154 127.369C272.305 123.52 270.142 118.299 270.142 112.855C270.142 107.411 272.305 102.19 276.154 98.3406C280.004 94.4912 285.224 92.3287 290.668 92.3287H390.902C391.099 92.3287 391.293 92.3674 391.475 92.4427C391.657 92.518 391.822 92.6284 391.961 92.7675C392.1 92.9066 392.211 93.0718 392.286 93.2536C392.361 93.4353 392.4 93.6302 392.4 93.8269C392.4 94.0237 392.361 94.2185 392.286 94.4003C392.211 94.582 392.1 94.7472 391.961 94.8864C391.822 95.0255 391.657 95.1358 391.475 95.2111C391.293 95.2864 391.099 95.3252 390.902 95.3252H290.668C286.019 95.3252 281.56 97.1721 278.273 100.46C274.986 103.747 273.139 108.206 273.139 112.855C273.139 117.504 274.986 121.963 278.273 125.25C281.56 128.538 286.019 130.384 290.668 130.384H390.902C391.299 130.385 391.68 130.543 391.961 130.823C392.242 131.104 392.4 131.485 392.4 131.883Z" fill="#3F3D56"/>
<path d="M390.003 102.217H285.125C285.045 102.218 284.969 102.187 284.913 102.131C284.856 102.075 284.824 102 284.823 101.92C284.823 101.841 284.853 101.765 284.909 101.708C284.964 101.651 285.04 101.619 285.119 101.618H390.003C390.082 101.619 390.157 101.651 390.213 101.707C390.268 101.763 390.299 101.839 390.299 101.917C390.299 101.996 390.268 102.072 390.213 102.128C390.157 102.184 390.082 102.216 390.003 102.217V102.217Z" fill="#CCCCCC"/>
<path d="M390.003 109.409H285.125C285.045 109.409 284.969 109.378 284.913 109.323C284.856 109.267 284.824 109.191 284.823 109.112C284.823 109.033 284.853 108.956 284.909 108.9C284.964 108.843 285.04 108.811 285.119 108.81H390.003C390.082 108.81 390.157 108.842 390.213 108.898C390.268 108.954 390.299 109.03 390.299 109.109C390.299 109.188 390.268 109.264 390.213 109.32C390.157 109.376 390.082 109.408 390.003 109.409Z" fill="#CCCCCC"/>
<path d="M390.003 116.6H285.125C285.045 116.601 284.969 116.57 284.913 116.514C284.856 116.459 284.824 116.383 284.823 116.304C284.823 116.224 284.853 116.148 284.909 116.091C284.964 116.035 285.04 116.002 285.119 116.001H390.003C390.082 116.002 390.157 116.034 390.213 116.09C390.268 116.146 390.299 116.222 390.299 116.301C390.299 116.38 390.268 116.456 390.213 116.512C390.157 116.568 390.082 116.6 390.003 116.6Z" fill="#CCCCCC"/>
<path d="M390.003 123.792H285.125C285.045 123.792 284.969 123.761 284.913 123.706C284.856 123.65 284.824 123.574 284.823 123.495C284.823 123.416 284.853 123.34 284.909 123.283C284.964 123.226 285.04 123.194 285.119 123.193H390.003C390.082 123.194 390.157 123.225 390.213 123.282C390.268 123.338 390.299 123.413 390.299 123.492C390.299 123.571 390.268 123.647 390.213 123.703C390.157 123.759 390.082 123.791 390.003 123.792V123.792Z" fill="#CCCCCC"/>
<path d="M503.537 313.102V279.137C503.537 277.635 502.94 276.195 501.879 275.134C500.817 274.072 499.377 273.476 497.876 273.476H369.092C367.59 273.476 366.151 274.072 365.089 275.134C364.027 276.195 363.431 277.635 363.431 279.137V313.102H503.537Z" fill="#CCCCCC"/>
<path d="M503.537 325.839H363.431V369.71H503.537V325.839Z" fill="#CCCCCC"/>
<path d="M363.431 382.447V416.412C363.431 417.914 364.027 419.353 365.089 420.415C366.151 421.477 367.59 422.073 369.092 422.073H497.876C499.377 422.073 500.817 421.477 501.879 420.415C502.94 419.353 503.537 417.914 503.537 416.412V382.447H363.431Z" fill="#CCCCCC"/>
<path d="M432.776 298.95C435.121 298.95 437.022 297.049 437.022 294.704C437.022 292.359 435.121 290.458 432.776 290.458C430.432 290.458 428.531 292.359 428.531 294.704C428.531 297.049 430.432 298.95 432.776 298.95Z" fill="white"/>
<path d="M432.776 355.558C435.121 355.558 437.022 353.657 437.022 351.312C437.022 348.968 435.121 347.067 432.776 347.067C430.432 347.067 428.531 348.968 428.531 351.312C428.531 353.657 430.432 355.558 432.776 355.558Z" fill="white"/>
<path d="M433.004 410.968C435.349 410.968 437.249 409.067 437.249 406.722C437.249 404.377 435.349 402.477 433.004 402.477C430.659 402.477 428.758 404.377 428.758 406.722C428.758 409.067 430.659 410.968 433.004 410.968Z" fill="white"/>
<path d="M487.652 234.749V273.704H390.056C384.893 273.88 379.871 271.998 376.094 268.473C372.317 264.948 370.094 260.067 369.915 254.904C369.735 249.741 371.612 244.717 375.135 240.938C378.658 237.158 383.537 234.932 388.7 234.749C389.152 234.733 389.604 234.733 390.056 234.749H487.652Z" fill="#F2F2F2"/>
<path d="M490.05 273.404C490.05 273.801 489.892 274.182 489.611 274.463C489.33 274.744 488.949 274.902 488.552 274.902H388.318C382.875 274.904 377.655 272.743 373.805 268.896C369.955 265.049 367.79 259.831 367.787 254.388C367.784 248.946 369.942 243.725 373.787 239.873C377.633 236.022 382.851 233.855 388.293 233.85H488.552C488.749 233.849 488.944 233.888 489.126 233.963C489.308 234.038 489.474 234.148 489.613 234.287C489.753 234.426 489.864 234.592 489.939 234.774C490.015 234.956 490.054 235.151 490.054 235.348C490.054 235.545 490.015 235.74 489.939 235.922C489.864 236.104 489.753 236.27 489.613 236.409C489.474 236.548 489.308 236.658 489.126 236.733C488.944 236.809 488.749 236.847 488.552 236.846H388.318C383.673 236.852 379.22 238.702 375.938 241.989C372.655 245.276 370.811 249.731 370.811 254.376C370.811 259.021 372.655 263.476 375.938 266.763C379.22 270.05 383.673 271.9 388.318 271.906H488.552C488.949 271.906 489.33 272.064 489.611 272.345C489.892 272.626 490.05 273.007 490.05 273.404V273.404Z" fill="#064E3B"/>
<path d="M487.652 243.738H382.774C382.695 243.739 382.619 243.708 382.562 243.652C382.506 243.596 382.474 243.521 382.473 243.441C382.472 243.362 382.503 243.286 382.559 243.229C382.614 243.172 382.69 243.14 382.769 243.139H487.653C487.731 243.14 487.807 243.172 487.863 243.228C487.918 243.284 487.949 243.36 487.949 243.439C487.949 243.518 487.918 243.593 487.863 243.65C487.807 243.706 487.731 243.738 487.653 243.738H487.652Z" fill="#CCCCCC"/>
<path d="M487.652 250.93H382.774C382.695 250.93 382.619 250.899 382.562 250.844C382.506 250.788 382.474 250.712 382.473 250.633C382.472 250.554 382.503 250.478 382.559 250.421C382.614 250.364 382.69 250.332 382.769 250.331H487.653C487.731 250.332 487.807 250.363 487.863 250.42C487.918 250.476 487.949 250.551 487.949 250.63C487.949 250.709 487.918 250.785 487.863 250.841C487.807 250.897 487.731 250.929 487.653 250.93H487.652Z" fill="#CCCCCC"/>
<path d="M487.652 258.122H382.774C382.695 258.122 382.619 258.091 382.562 258.035C382.506 257.98 382.474 257.904 382.473 257.825C382.472 257.746 382.503 257.669 382.559 257.613C382.614 257.556 382.69 257.523 382.769 257.522H487.653C487.731 257.523 487.807 257.555 487.863 257.611C487.918 257.667 487.949 257.743 487.949 257.822C487.949 257.901 487.918 257.977 487.863 258.033C487.807 258.089 487.731 258.121 487.653 258.122H487.652Z" fill="#CCCCCC"/>
<path d="M487.652 265.313H382.774C382.695 265.314 382.619 265.283 382.562 265.227C382.506 265.171 382.474 265.096 382.473 265.016C382.472 264.937 382.503 264.861 382.559 264.804C382.614 264.747 382.69 264.715 382.769 264.714H487.653C487.731 264.715 487.807 264.747 487.863 264.803C487.918 264.859 487.949 264.935 487.949 265.014C487.949 265.093 487.918 265.168 487.863 265.224C487.807 265.281 487.731 265.312 487.653 265.313H487.652Z" fill="#CCCCCC"/>
<path d="M373.031 80.2324H328.565C328.143 80.2321 327.727 80.3289 327.348 80.5155L316.125 86.1338C315.756 86.2908 315.441 86.553 315.22 86.8877C314.998 87.2223 314.88 87.6148 314.88 88.016C314.88 88.4173 314.998 88.8098 315.22 89.1444C315.441 89.4791 315.756 89.7413 316.125 89.8982L327.348 95.5166C327.727 95.7032 328.143 95.8 328.565 95.7997H373.031C373.644 95.8351 374.246 95.6278 374.707 95.2225C375.168 94.8172 375.45 94.2466 375.494 93.6344V82.3976C375.45 81.7854 375.168 81.2149 374.707 80.8096C374.246 80.4043 373.644 80.197 373.031 80.2324V80.2324Z" fill="#3F3D56"/>
<path d="M375.494 82.3977V93.6344C375.45 94.2467 375.168 94.8173 374.707 95.2226C374.246 95.6278 373.644 95.8352 373.031 95.7998H364.172V80.2324H373.031C373.644 80.197 374.246 80.4043 374.707 80.8096C375.168 81.2149 375.45 81.7855 375.494 82.3977V82.3977Z" fill="#059669"/>
<path d="M106.444 300.412C112.17 302.424 118.317 302.928 124.294 301.876C130.271 300.823 135.876 298.248 140.57 294.4C152.522 284.368 156.27 267.84 159.319 252.536C162.325 237.448 165.332 222.359 168.338 207.27L149.456 220.272C135.877 229.622 121.992 239.271 112.59 252.814C103.188 266.357 99.0842 284.844 106.638 299.498" fill="#E6E6E6"/>
<path d="M108.058 355.216C106.147 341.295 104.182 327.196 105.523 313.126C106.713 300.63 110.525 288.425 118.287 278.418C122.406 273.117 127.419 268.574 133.1 264.995C134.581 264.06 135.944 266.408 134.469 267.339C124.64 273.551 117.038 282.724 112.758 293.535C108.031 305.558 107.272 318.663 108.087 331.435C108.579 339.158 109.623 346.831 110.675 354.494C110.758 354.841 110.707 355.206 110.531 355.516C110.355 355.826 110.068 356.057 109.728 356.163C109.381 356.257 109.011 356.21 108.698 356.032C108.386 355.855 108.156 355.562 108.058 355.216L108.058 355.216Z" fill="#F2F2F2"/>
<path d="M126.466 330.583C128.921 334.315 132.297 337.352 136.267 339.401C140.237 341.45 144.668 342.442 149.132 342.281C160.606 341.737 170.172 333.728 178.783 326.126L204.253 303.638L187.396 302.831C175.274 302.251 162.839 301.71 151.293 305.448C139.747 309.186 129.098 318.183 126.987 330.134" fill="#E6E6E6"/>
<path d="M102.657 363.218C111.856 346.942 122.525 328.853 141.59 323.071C146.891 321.469 152.449 320.895 157.966 321.38C159.704 321.53 159.27 324.21 157.535 324.061C148.288 323.293 139.059 325.735 131.402 330.975C124.033 335.99 118.296 342.963 113.44 350.358C110.466 354.887 107.801 359.608 105.137 364.324C104.285 365.83 101.796 364.743 102.657 363.218L102.657 363.218Z" fill="#F2F2F2"/>
<path d="M87.9186 380.35C88.2286 376.759 89.5179 373.321 91.6463 370.412C93.7748 367.503 96.6606 365.234 99.9895 363.852V354.442H115.772V364.148C118.937 365.598 121.661 367.862 123.666 370.708C125.671 373.554 126.885 376.881 127.185 380.35L130.896 423.488H84.2076L87.9186 380.35Z" fill="#F2F2F2"/>
<path d="M624.636 174.373L619.942 172.396L616.721 148.861H573.832L570.341 172.3L566.141 174.4C565.94 174.501 565.778 174.666 565.683 174.87C565.588 175.073 565.564 175.303 565.616 175.522C565.668 175.74 565.791 175.935 565.968 176.075C566.144 176.214 566.362 176.29 566.587 176.29H624.249C624.48 176.29 624.703 176.21 624.881 176.065C625.059 175.919 625.182 175.716 625.227 175.49C625.273 175.264 625.239 175.03 625.131 174.826C625.023 174.623 624.849 174.463 624.636 174.373V174.373Z" fill="#E6E6E6"/>
<path d="M700.853 151.992H490.17C489.065 151.99 488.006 151.549 487.225 150.766C486.444 149.984 486.006 148.924 486.006 147.818V118.109H705.018V147.818C705.018 148.924 704.579 149.984 703.799 150.766C703.018 151.549 701.959 151.99 700.853 151.992V151.992Z" fill="#CCCCCC"/>
<path d="M705.238 132.15H485.813V5.03168C485.815 3.69764 486.346 2.41868 487.289 1.47539C488.232 0.532095 489.511 0.0014927 490.845 0H700.206C701.54 0.00149268 702.819 0.532097 703.763 1.47539C704.706 2.41868 705.237 3.69763 705.238 5.03168L705.238 132.15Z" fill="#3F3D56"/>
<path d="M692.133 122.924H498.919C497.89 122.923 496.904 122.514 496.177 121.787C495.45 121.06 495.041 120.074 495.04 119.045V13.1054C495.041 12.0769 495.45 11.0909 496.177 10.3636C496.904 9.63634 497.89 9.22725 498.919 9.22607H692.133C693.161 9.22725 694.147 9.63634 694.874 10.3636C695.602 11.0909 696.011 12.0769 696.012 13.1054V119.045C696.011 120.074 695.602 121.06 694.874 121.787C694.147 122.514 693.161 122.923 692.133 122.924V122.924Z" fill="white"/>
<path d="M641.243 160.305C642.49 159.153 643.975 158.288 645.593 157.772C647.211 157.255 648.922 157.1 650.607 157.317C652.291 157.533 653.907 158.117 655.342 159.026C656.776 159.935 657.994 161.147 658.909 162.577L685.044 157.931L691.741 173.124L654.742 179.167C652.237 180.546 649.313 180.957 646.525 180.324C643.737 179.691 641.278 178.057 639.614 175.732C637.95 173.407 637.197 170.552 637.497 167.709C637.798 164.866 639.13 162.231 641.243 160.305V160.305Z" fill="#FFB6B6"/>
<path d="M665.44 179.704L692.685 179.365L696.134 179.318L751.567 178.62C751.567 178.62 766.62 164.259 779.727 149.473L777.89 136.185C776.098 123.144 769.629 111.198 759.686 102.57C740.913 115.114 730.026 139.944 730.026 139.944L695.656 148.165L692.218 148.987L670.862 154.09L665.44 179.704Z" fill="#065F46"/>
<path d="M804.913 261.38H754.056C754.056 263.559 698.462 265.328 698.462 265.328C697.235 266.251 696.118 267.311 695.13 268.486C692.162 272.025 690.54 276.5 690.55 281.119V284.277C690.552 289.511 692.632 294.531 696.333 298.232C700.035 301.933 705.054 304.013 710.289 304.015H804.913C810.147 304.011 815.165 301.93 818.866 298.229C822.566 294.528 824.648 289.51 824.652 284.277V281.119C824.645 275.886 822.563 270.869 818.863 267.169C815.163 263.469 810.146 261.387 804.913 261.38V261.38Z" fill="#E4E4E4"/>
<path d="M767.93 303.231H747.402V421.721H767.93V303.231Z" fill="#E4E4E4"/>
<path d="M688.976 421C688.976 423.218 720.083 421.858 758.456 421.858C796.828 421.858 827.935 423.218 827.935 421C827.935 418.781 796.828 401.193 758.456 401.193C720.083 401.193 688.976 418.782 688.976 421Z" fill="#E4E4E4"/>
<path d="M675.186 407.461L659.908 407.46L652.64 348.531L675.188 348.532L675.186 407.461Z" fill="#FFB6B6"/>
<path d="M679.082 422.27L629.82 422.268V421.645C629.82 416.56 631.84 411.683 635.436 408.088C639.032 404.492 643.909 402.472 648.994 402.471H648.995L679.083 402.473L679.082 422.27Z" fill="#2F2E41"/>
<path d="M630.031 407.461L614.753 407.46L607.485 348.531L630.033 348.532L630.031 407.461Z" fill="#FFB6B6"/>
<path d="M633.927 422.27L584.665 422.268V421.645C584.665 416.56 586.685 411.683 590.281 408.088C593.877 404.492 598.754 402.472 603.839 402.471H603.84L633.928 402.473L633.927 422.27Z" fill="#2F2E41"/>
<path d="M767 76C785.778 76 801 61.0015 801 42.5C801 23.9985 785.778 9 767 9C748.222 9 733 23.9985 733 42.5C733 61.0015 748.222 76 767 76Z" fill="#FFB6B6"/>
<path d="M809.88 223.642C809.88 223.642 818.793 270.773 784.88 276.775C750.968 282.777 702.014 286.995 702.014 286.995L680.03 389.562L650.496 386.925C650.496 386.925 654.424 263.457 664.084 253.798C673.743 244.138 734.796 215.215 734.796 215.215L809.88 223.642Z" fill="#2F2E41"/>
<path d="M743.646 203.89L728.814 218.769C728.814 218.769 621.72 236.019 617.589 260.754C611.351 298.098 603.984 379.306 603.984 379.306L636.183 376.891L648.809 284.58L700.327 272.861L758.941 240.918L743.646 203.89Z" fill="#2F2E41"/>
<path d="M799.117 22.7333C795.84 16.5978 791.677 4.36987 785.063 2.10205C781.39 0.893437 777.593 0.0908892 773.743 -0.291014L762.501 3.99988L768.619 -0.722469C767.428 -0.792899 766.238 -0.850476 765.048 -0.895194L757.462 1.99989L761.343 -0.99537C754.272 -1.0674 746.972 -0.337721 741.493 3.93433C736.822 7.57625 732.194 21.3726 731.445 27.2206C730.645 32.815 730.925 38.5094 732.27 44L734.191 45.8126C734.863 44.2836 735.368 42.6877 735.698 41.052C736.387 37.9958 737.71 35.1156 739.582 32.5947C741.454 30.0739 743.835 27.9678 746.573 26.4107L746.678 26.3522C749.9 24.5528 753.809 24.6357 757.504 24.7677L775.051 25.3943C779.272 25.5451 783.818 25.8102 787.109 28.4381C789.201 30.3767 790.846 32.7411 791.931 35.3694C793.566 38.6451 796.762 51 796.762 51C796.762 51 798.57 48.6678 799.437 50.4036C800.827 45.8748 801.672 41.1987 801.954 36.4728C802.231 31.7259 801.253 26.9897 799.117 22.7333V22.7333Z" fill="#2F2E41"/>
<path d="M885.358 53.3018C883.663 53.4134 882.014 53.8951 880.526 54.7131C879.037 55.5311 877.747 56.6655 876.744 58.0363C875.742 59.4071 875.052 60.981 874.724 62.6471C874.396 64.3132 874.437 66.0311 874.844 67.6796L853.483 83.4369L859.893 98.7536L889.746 76.0777C892.471 75.2096 894.782 73.3724 896.242 70.9143C897.702 68.4561 898.209 65.5478 897.668 62.7404C897.127 59.9329 895.575 57.4215 893.306 55.6819C891.038 53.9423 888.209 53.0954 885.358 53.3018V53.3018Z" fill="#FFB6B6"/>
<path d="M881.92 85.4703L828.369 144.945C828.369 144.945 802.759 136.747 782.954 127.858L774.056 100.531C771.99 94.1909 771.108 87.525 771.455 80.8661C798.911 73.5601 830.846 100.745 830.846 100.745L870.931 69.346L881.92 85.4703Z" fill="#065F46"/>
<path d="M756.964 228.035C747.41 224.735 737.531 221.322 726.875 220.041L726.418 219.986L726.544 219.543C737.575 180.812 734.821 156.036 729.416 118.82C728.266 110.792 729.743 102.608 733.627 95.4891C737.51 88.37 743.592 82.6977 750.964 79.3187L751.03 79.2892L781.464 77.3552L781.533 77.351L803.668 83.8609C806.852 84.8043 809.639 86.7657 811.601 89.4445C813.564 92.1232 814.595 95.3717 814.535 98.692C814.295 110.931 814.804 124.596 815.342 139.063C816.55 171.519 817.799 205.08 810.711 226.855L810.674 226.969L810.58 227.043C804.064 232.35 795.902 235.217 787.499 235.151C777.564 235.151 767.425 231.649 756.964 228.035Z" fill="#065F46"/>
<path d="M977.912 424.837H1.41521C1.03988 424.837 0.679916 424.687 0.414513 424.422C0.149109 424.157 0 423.797 0 423.421C0 423.046 0.149109 422.686 0.414513 422.421C0.679916 422.155 1.03988 422.006 1.41521 422.006H977.912C978.287 422.006 978.647 422.155 978.912 422.421C979.178 422.686 979.327 423.046 979.327 423.421C979.327 423.797 979.178 424.157 978.912 424.422C978.647 424.687 978.287 424.837 977.912 424.837Z" fill="#CCCCCC"/>
</g>
<defs>
<clipPath id="clip0">
<rect width="979.327" height="424.837" fill="white"/>
</clipPath>
</defs>
</svg>
