<svg width="83" height="32" viewBox="0 0 83 32" fill="none" xmlns="http://www.w3.org/2000/svg">
<path d="M43.5966 21H45.6761L48.0114 12.8352H48.1023L50.4318 21H52.5114L55.7955 9.36363H53.5284L51.4318 17.9205H51.3295L49.0852 9.36363H47.0227L44.7841 17.9148H44.6761L42.5795 9.36363H40.3125L43.5966 21Z" fill="black"/>
<path d="M56.8462 21H58.903V12.2727H56.8462V21ZM57.8803 11.0341C58.5337 11.0341 59.0678 10.5341 59.0678 9.92045C59.0678 9.30113 58.5337 8.80113 57.8803 8.80113C57.2212 8.80113 56.6871 9.30113 56.6871 9.92045C56.6871 10.5341 57.2212 11.0341 57.8803 11.0341Z" fill="black"/>
<path d="M60.5844 21H67.7492V19.2955H63.3174V19.2216L67.6015 13.6761V12.2727H60.7322V13.9773H65.0844V14.0511L60.5844 19.6932V21Z" fill="black"/>
<path d="M69.3624 21H71.4193V15.8693C71.4193 14.7614 72.2545 13.9773 73.3852 13.9773C73.7318 13.9773 74.1636 14.0398 74.3397 14.0966V12.2045C74.1522 12.1705 73.8284 12.1477 73.6011 12.1477C72.6011 12.1477 71.7659 12.7159 71.4477 13.7273H71.3568V12.2727H69.3624V21Z" fill="black"/>
<path d="M78.2655 21.1534C79.7655 21.1534 80.4416 20.2614 80.7655 19.625H80.8905V21H82.9132V9.36363H80.8507V13.7159H80.7655C80.453 13.0852 79.8109 12.1591 78.2711 12.1591C76.2541 12.1591 74.6689 13.7386 74.6689 16.6477C74.6689 19.5227 76.2086 21.1534 78.2655 21.1534ZM78.8393 19.4659C77.4814 19.4659 76.7655 18.2727 76.7655 16.6364C76.7655 15.0114 77.47 13.8466 78.8393 13.8466C80.1632 13.8466 80.8905 14.9432 80.8905 16.6364C80.8905 18.3295 80.1518 19.4659 78.8393 19.4659Z" fill="black"/>
<circle cx="16" cy="16" r="16" fill="black"/>
</svg>
