<svg width="112" height="32" viewBox="0 0 112 32" fill="none" xmlns="http://www.w3.org/2000/svg">
<path d="M46.616 11.8139H48.0975C48.0528 10.1832 46.611 9 44.5428 9C42.4995 9 40.9334 10.1683 40.9334 11.9233C40.9334 13.3402 41.9476 14.1705 43.5833 14.6129L44.7864 14.9411C45.8752 15.2294 46.7154 15.5874 46.7154 16.4922C46.7154 17.4865 45.7658 18.1428 44.4583 18.1428C43.2751 18.1428 42.2907 17.6158 42.2012 16.5071H40.66C40.7594 18.3516 42.1863 19.4901 44.4682 19.4901C46.8596 19.4901 48.2367 18.2322 48.2367 16.5071C48.2367 14.6726 46.6011 13.9616 45.3084 13.6435L44.3141 13.3849C43.5187 13.1811 42.4597 12.8082 42.4647 11.8338C42.4647 10.9687 43.2552 10.3274 44.508 10.3274C45.6763 10.3274 46.5066 10.8743 46.616 11.8139Z" fill="black"/>
<path d="M53.2378 11.6847H51.6717V9.85511H50.1852V11.6847H49.0666V12.8778H50.1852V17.3871C50.1803 18.7741 51.2392 19.4453 52.4125 19.4205C52.8848 19.4155 53.203 19.326 53.377 19.2614L53.1085 18.0334C53.0091 18.0533 52.8251 18.098 52.5865 18.098C52.1043 18.098 51.6717 17.9389 51.6717 17.0788V12.8778H53.2378V11.6847Z" fill="black"/>
<path d="M54.6021 19.321H56.0886V14.6577C56.0886 13.6584 56.8592 12.9375 57.9132 12.9375C58.2215 12.9375 58.5695 12.9922 58.6888 13.027V11.6051C58.5396 11.5852 58.2463 11.5703 58.0574 11.5703C57.1625 11.5703 56.3969 12.0774 56.1185 12.8977H56.0389V11.6847H54.6021V19.321Z" fill="black"/>
<path d="M62.7129 19.4751C64.3784 19.4751 65.5567 18.6548 65.8948 17.4119L64.4878 17.1584C64.2193 17.8793 63.573 18.2472 62.7278 18.2472C61.4551 18.2472 60.6 17.4219 60.5602 15.9503H65.9892V15.4233C65.9892 12.6641 64.3386 11.5852 62.6085 11.5852C60.4807 11.5852 59.0787 13.206 59.0787 15.5526C59.0787 17.924 60.4608 19.4751 62.7129 19.4751ZM60.5652 14.8366C60.6249 13.7528 61.4104 12.8132 62.6185 12.8132C63.7719 12.8132 64.5276 13.6683 64.5325 14.8366H60.5652Z" fill="black"/>
<path d="M69.5808 19.4901C70.8436 19.4901 71.5546 18.8487 71.8379 18.277H71.8976V19.321H73.3493V14.25C73.3493 12.0277 71.5993 11.5852 70.3862 11.5852C69.0041 11.5852 67.7314 12.142 67.2342 13.5341L68.6313 13.8523C68.85 13.3104 69.4068 12.7884 70.4061 12.7884C71.3656 12.7884 71.8578 13.2905 71.8578 14.1555V14.1903C71.8578 14.7322 71.301 14.7223 69.9289 14.8814C68.4821 15.0504 67.0006 15.4283 67.0006 17.1634C67.0006 18.6648 68.1291 19.4901 69.5808 19.4901ZM69.904 18.2969C69.0638 18.2969 68.4573 17.919 68.4573 17.1832C68.4573 16.3878 69.1632 16.1044 70.0233 15.9901C70.5056 15.9254 71.649 15.7962 71.8628 15.5824V16.5668C71.8628 17.4716 71.1419 18.2969 69.904 18.2969Z" fill="black"/>
<path d="M75.0492 19.321H76.5357V14.6129C76.5357 13.5838 77.2566 12.8679 78.1018 12.8679C78.9271 12.8679 79.4988 13.4148 79.4988 14.245V19.321H80.9804V14.4538C80.9804 13.5341 81.5421 12.8679 82.5116 12.8679C83.2971 12.8679 83.9434 13.3054 83.9434 14.3395V19.321H85.4299V14.2003C85.4299 12.4553 84.4555 11.5852 83.0734 11.5852C81.9747 11.5852 81.1494 12.1122 80.7815 12.9276H80.7019C80.3688 12.0923 79.6679 11.5852 78.6487 11.5852C77.6394 11.5852 76.8887 12.0874 76.5705 12.9276H76.4761V11.6847H75.0492V19.321Z" fill="black"/>
<path d="M88.1217 19.321L89.0564 16.6264H93.0336L93.9633 19.321H95.594L91.9299 9.1392H90.1551L86.491 19.321H88.1217ZM89.5038 15.3338L91.0052 10.9886H91.0848L92.5862 15.3338H89.5038Z" fill="black"/>
<path d="M96.665 22.1847H98.1515V18.1328H98.241C98.5095 18.62 99.0564 19.4702 100.448 19.4702C102.298 19.4702 103.64 17.9886 103.64 15.5178C103.64 13.0419 102.278 11.5852 100.433 11.5852C99.0166 11.5852 98.5045 12.4503 98.241 12.9226H98.1167V11.6847H96.665V22.1847ZM98.1217 15.5028C98.1217 13.907 98.8177 12.848 100.115 12.848C101.463 12.848 102.139 13.9865 102.139 15.5028C102.139 17.0341 101.443 18.2024 100.115 18.2024C98.8376 18.2024 98.1217 17.1087 98.1217 15.5028Z" fill="black"/>
<path d="M105.026 22.1847H106.512V18.1328H106.602C106.87 18.62 107.417 19.4702 108.809 19.4702C110.658 19.4702 112.001 17.9886 112.001 15.5178C112.001 13.0419 110.639 11.5852 108.794 11.5852C107.377 11.5852 106.865 12.4503 106.602 12.9226H106.477V11.6847H105.026V22.1847ZM106.482 15.5028C106.482 13.907 107.178 12.848 108.476 12.848C109.823 12.848 110.499 13.9865 110.499 15.5028C110.499 17.0341 109.803 18.2024 108.476 18.2024C107.198 18.2024 106.482 17.1087 106.482 15.5028Z" fill="black"/>
<circle cx="16" cy="16" r="16" fill="black"/>
</svg>
