<svg width="105" height="32" viewBox="0 0 105 32" fill="none" xmlns="http://www.w3.org/2000/svg">
<path d="M40.276 8.16401V8.21001C41.196 9.15301 41.771 10.372 42.369 12.258L46.44 25.138H48.142L52.305 13.799L56.192 25.138H57.894L61.873 12.465C62.494 10.556 63.115 9.29101 64.15 8.21001V8.16401H60.148V8.21001C60.976 9.19901 61.367 10.763 60.562 13.362L58.193 20.883L55.341 12.396C54.72 10.556 54.904 9.03801 55.548 8.21001V8.16401H49.752V8.21001C50.603 9.10701 51.109 10.28 51.73 12.143L51.799 12.373L48.625 21.044L45.957 12.373C45.405 10.556 45.497 9.10701 46.164 8.21001V8.16401H40.276Z" fill="#4B5563"/>
<path d="M66.8151 11.085C67.8271 11.085 68.6321 10.303 68.6321 9.31401C68.6321 8.32501 67.8271 7.54301 66.8151 7.54301C65.8261 7.54301 65.0441 8.32501 65.0441 9.31401C65.0441 10.303 65.8261 11.085 66.8151 11.085ZM64.8831 25H69.1381V24.954C68.6781 23.643 68.5401 22.447 68.5401 20.331V12.764L64.2391 14.098V14.236C65.0441 15.087 65.5041 16.122 65.5041 17.847V20.331C65.5041 22.493 65.2511 23.643 64.8831 24.954V25Z" fill="#4B5563"/>
<path d="M81.2579 20.906L80.9129 20.768C79.4409 22.93 78.4749 23.988 77.0029 24.057L74.3579 24.149L80.7979 13.477V13.247H71.7819L70.7239 17.019L71.0459 17.157C72.4259 15.524 73.4609 14.282 74.7259 14.236L77.0259 14.144L70.5399 24.793V25H80.2229L81.2579 20.906Z" fill="#4B5563"/>
<path d="M82.6731 25H86.9281V24.954C86.4681 23.643 86.3301 22.47 86.3301 20.331V16.743C86.7901 16.145 87.3421 15.8 87.7331 15.8C88.3081 15.8 89.3661 16.145 90.0101 16.536L90.2861 16.513L90.5851 12.879C88.6301 12.649 87.3191 14.328 86.2611 15.754H86.2151V12.764L82.0291 14.098V14.144C82.8341 15.018 83.2941 16.007 83.2941 17.778V20.331C83.2941 22.516 83.1101 23.643 82.6731 24.954V25Z" fill="#4B5563"/>
<path d="M97.808 12.879C93.576 12.879 91.322 16.03 91.322 19.664C91.322 22.976 93.047 25.345 96.037 25.345C98.038 25.345 99.487 24.172 100.177 22.884H100.223V25.299L104.455 24.379V24.333C103.581 23.505 103.19 22.838 103.19 19.71V6.46201L98.889 7.81901V7.86501C99.694 8.69301 100.131 9.72801 100.131 11.499V13.247C99.487 13.017 98.705 12.879 97.808 12.879ZM94.565 18.721C94.565 15.846 95.669 13.799 97.624 13.799C98.751 13.799 99.786 14.466 100.131 16.26V22.056C99.556 22.861 98.659 23.413 97.555 23.413C95.6 23.413 94.565 21.688 94.565 18.721Z" fill="#4B5563"/>
<path fill-rule="evenodd" clip-rule="evenodd" d="M16 32C24.8366 32 32 24.8366 32 16C32 7.16344 24.8366 0 16 0C7.16344 0 0 7.16344 0 16C0 19.6402 1.21564 22.9965 3.2631 25.685C6.40334 22.0819 7.83644 18.936 8.14805 15.5211C8.2912 13.9533 8.85728 12.0768 9.7285 10.4594C10.5997 8.84185 11.7784 7.49444 13.0603 6.8912C14.32 6.29857 15.7174 6.0053 17.1163 6L17.1164 6.00017C17.2097 5.99977 17.3032 6.00148 17.3964 6.00376C20.6782 6.08127 23.9129 7.73415 25.3248 10.7856C26.8679 14.1212 25.728 18.4459 22.2944 20.0143C19.7599 21.1722 16.4813 20.2978 15.3097 17.6831C14.4588 15.7843 15.1169 13.331 17.0611 12.4734C18.4458 11.8627 20.23 12.3482 20.8407 13.7638L20.8533 13.7923L20.8693 13.8191C21.4329 14.7955 21.0867 15.6681 20.6178 16.0451C20.3833 16.2336 20.1516 16.286 19.94 16.2252C19.7284 16.1642 19.4615 15.9711 19.2337 15.4142L18.2474 15.817C18.5589 16.5785 19.0573 17.0807 19.6458 17.2499C20.2341 17.4191 20.8378 17.2366 21.2867 16.8757C22.1725 16.1634 22.5793 14.7137 21.8201 13.3414C21.8157 13.3312 21.8108 13.3215 21.8059 13.3119C21.8016 13.3034 21.7973 13.2949 21.7933 13.2861C20.9038 11.3179 18.4995 10.6743 16.6314 11.4984C14.092 12.6185 13.261 15.719 14.3359 18.1179C14.394 18.2475 14.4608 18.3695 14.5276 18.4914C14.5332 18.5018 14.5389 18.5121 14.5446 18.5224C14.2781 20.2068 12.9977 22.6395 11.0807 25.1864C10.0107 26.6081 8.75261 28.0704 7.38947 29.4879C9.87536 31.0781 12.83 32 16 32ZM4.7169 27.3442C4.99824 27.0445 5.27152 26.7446 5.53697 26.4447C6.73392 25.0309 7.49475 23.2795 8.02516 21.4275L8.02157 21.4258C6.92122 23.1365 5.59187 24.8502 3.98558 26.5669C4.22073 26.8341 4.46466 27.0933 4.7169 27.3442ZM16.1834 7.5756C16.0098 7.54378 15.8314 7.52592 15.6466 7.52393L15.6466 7.52387C15.1467 7.51845 14.5993 7.63298 13.9753 7.93023C13.4537 8.20599 12.9647 8.5507 12.5182 8.95141C11.7084 9.67825 11.027 10.5868 10.5079 11.6143C10.333 12.0284 10.252 12.4056 10.2351 12.7673C10.2077 13.3524 10.351 13.9286 10.6167 14.5764C10.9947 12.63 11.9491 10.894 13.2299 9.74469C14.5116 8.59433 16.0926 8.0212 17.8405 8.33129C17.3219 7.96075 16.7738 7.68385 16.1834 7.5756ZM24.5434 15.1076C24.6249 13.4653 23.9524 11.8288 22.6635 11.0778L22.6599 11.083C22.8708 11.4155 23.0366 11.7801 23.1647 12.1506C23.4534 12.9858 23.5595 13.8689 23.4769 14.628C23.4852 14.7691 23.4857 14.9113 23.4786 15.0539C23.414 16.355 22.7726 17.6104 21.1778 18.2016L21.183 18.2158C22.0072 18.4802 23.3228 18.1053 24.0351 17.0253C24.3456 16.4179 24.5112 15.7575 24.5434 15.1076ZM13.0282 14.0756C13.2476 13.1632 13.7291 12.2558 14.926 11.1527C14.4197 11.2377 13.9714 11.3664 13.5616 11.6196C13.0537 11.9336 12.5701 12.4481 12.1078 13.4197H12.1061C12.0624 13.5557 12.0245 13.6909 11.992 13.8261C11.7769 14.721 11.7849 15.5742 11.793 16.4428C11.795 16.6553 11.797 16.8688 11.7958 17.0841C11.783 19.274 11.5358 21.7406 7.87174 25.821L7.87534 25.8227C9.22411 24.96 10.6043 23.5058 11.8083 21.98C11.8084 21.9798 11.8087 21.9795 11.809 21.9793C11.8094 21.979 11.8099 21.9787 11.81 21.9783C12.7163 20.0309 12.8544 18.4481 12.8624 17.0913C12.8637 16.8672 12.8624 16.6502 12.8612 16.4393C12.8561 15.5742 12.8516 14.8103 13.0282 14.0756Z" fill="url(#paint0_linear)"/>
<defs>
<linearGradient id="paint0_linear" x1="4" y1="-1.5" x2="27" y2="32.5" gradientUnits="userSpaceOnUse">
<stop stop-color="#6EE7B7"/>
<stop offset="0.621359" stop-color="#10B981"/>
<stop offset="1" stop-color="#059669"/>
</linearGradient>
</defs>
</svg>
