<svg width="124" height="32" viewBox="0 0 124 32" fill="none" xmlns="http://www.w3.org/2000/svg">
<path d="M47.4716 12.5625H49.5C49.4602 10.5966 47.7841 9.20454 45.3068 9.20454C42.8636 9.20454 41.0284 10.5795 41.0341 12.6364C41.0341 14.3068 42.2216 15.267 44.1364 15.7614L45.4602 16.1023C46.7159 16.4205 47.5454 16.8125 47.5511 17.7159C47.5454 18.7102 46.6023 19.375 45.2273 19.375C43.9091 19.375 42.8864 18.7841 42.8011 17.5625H40.7273C40.8125 19.875 42.5341 21.1761 45.2443 21.1761C48.0341 21.1761 49.6534 19.7841 49.6591 17.733C49.6534 15.7159 47.9886 14.7955 46.2386 14.3807L45.1477 14.108C44.1932 13.8807 43.1591 13.4773 43.1704 12.5057C43.1761 11.6307 43.9602 10.9886 45.2784 10.9886C46.5341 10.9886 47.3636 11.5739 47.4716 12.5625Z" fill="black"/>
<path d="M55.4854 12.2727H53.7638V10.1818H51.707V12.2727H50.4683V13.8636H51.707V18.7159C51.6956 20.358 52.8888 21.1648 54.4343 21.1193C55.0195 21.1023 55.4229 20.9886 55.6445 20.9148L55.2979 19.3068C55.1843 19.3352 54.9513 19.3864 54.6956 19.3864C54.1786 19.3864 53.7638 19.2045 53.7638 18.375V13.8636H55.4854V12.2727Z" fill="black"/>
<path d="M56.8856 21H58.9424V15.8693C58.9424 14.7614 59.7776 13.9773 60.9083 13.9773C61.2549 13.9773 61.6867 14.0398 61.8628 14.0966V12.2045C61.6753 12.1705 61.3515 12.1477 61.1242 12.1477C60.1242 12.1477 59.289 12.7159 58.9708 13.7273H58.8799V12.2727H56.8856V21Z" fill="black"/>
<path d="M66.4136 21.1705C68.4477 21.1705 69.8454 20.1761 70.209 18.6591L68.2886 18.4432C68.0102 19.1818 67.3283 19.5682 66.442 19.5682C65.1124 19.5682 64.2318 18.6932 64.2147 17.1989H70.2943V16.5682C70.2943 13.5057 68.4533 12.1591 66.3056 12.1591C63.8056 12.1591 62.1749 13.9943 62.1749 16.6875C62.1749 19.4261 63.7829 21.1705 66.4136 21.1705ZM64.2204 15.8125C64.2829 14.6989 65.1068 13.7614 66.334 13.7614C67.5158 13.7614 68.3113 14.625 68.3227 15.8125H64.2204Z" fill="black"/>
<path d="M74.2257 21.1761C75.595 21.1761 76.4132 20.5341 76.7882 19.8011H76.8564V21H78.8336V15.1591C78.8336 12.8523 76.9529 12.1591 75.2882 12.1591C73.4529 12.1591 72.0439 12.9773 71.5893 14.5682L73.5098 14.8409C73.7143 14.2443 74.2939 13.733 75.2995 13.733C76.2541 13.733 76.7768 14.2216 76.7768 15.0795V15.1136C76.7768 15.7045 76.1575 15.733 74.6177 15.8977C72.9245 16.0795 71.3052 16.5852 71.3052 18.5511C71.3052 20.267 72.5609 21.1761 74.2257 21.1761ZM74.7598 19.6648C73.9018 19.6648 73.2882 19.2727 73.2882 18.517C73.2882 17.7273 73.9757 17.3977 74.8961 17.267C75.4359 17.1932 76.5154 17.0568 76.7825 16.8409V17.8693C76.7825 18.8409 75.9984 19.6648 74.7598 19.6648Z" fill="black"/>
<path d="M80.5818 21H82.6386V15.6932C82.6386 14.6193 83.3545 13.892 84.2409 13.892C85.1102 13.892 85.7068 14.4773 85.7068 15.375V21H87.7239V15.5568C87.7239 14.5739 88.3091 13.892 89.3034 13.892C90.1329 13.892 90.792 14.3807 90.792 15.4602V21H92.8545V15.142C92.8545 13.1932 91.7295 12.1591 90.1273 12.1591C88.8602 12.1591 87.8943 12.7841 87.5079 13.7557H87.417C87.0818 12.767 86.2352 12.1591 85.0591 12.1591C83.8886 12.1591 83.0136 12.7614 82.65 13.7557H82.5477V12.2727H80.5818V21Z" fill="black"/>
<path d="M96.2064 21L97.1666 18.1307H101.542L102.508 21H104.758L100.655 9.36364H98.053L93.9564 21H96.2064ZM97.7348 16.4375L99.3087 11.75H99.3996L100.973 16.4375H97.7348Z" fill="black"/>
<path d="M105.879 24.2727H107.936V19.625H108.021C108.345 20.2614 109.021 21.1534 110.521 21.1534C112.578 21.1534 114.118 19.5227 114.118 16.6477C114.118 13.7386 112.533 12.1591 110.516 12.1591C108.976 12.1591 108.334 13.0852 108.021 13.7159H107.902V12.2727H105.879V24.2727ZM107.896 16.6364C107.896 14.9432 108.624 13.8466 109.947 13.8466C111.317 13.8466 112.021 15.0114 112.021 16.6364C112.021 18.2727 111.305 19.4659 109.947 19.4659C108.635 19.4659 107.896 18.3295 107.896 16.6364Z" fill="black"/>
<path d="M115.559 24.2727H117.616V19.625H117.701C118.025 20.2614 118.701 21.1534 120.201 21.1534C122.258 21.1534 123.798 19.5227 123.798 16.6477C123.798 13.7386 122.213 12.1591 120.196 12.1591C118.656 12.1591 118.014 13.0852 117.701 13.7159H117.582V12.2727H115.559V24.2727ZM117.576 16.6364C117.576 14.9432 118.304 13.8466 119.627 13.8466C120.997 13.8466 121.701 15.0114 121.701 16.6364C121.701 18.2727 120.985 19.4659 119.627 19.4659C118.315 19.4659 117.576 18.3295 117.576 16.6364Z" fill="black"/>
<circle cx="16" cy="16" r="16" fill="black"/>
</svg>
