<svg width="32" height="32" viewBox="0 0 32 32" fill="none" xmlns="http://www.w3.org/2000/svg">
<circle cx="16" cy="16" r="16" fill="white"/>
<path fill-rule="evenodd" clip-rule="evenodd" d="M16 31C24.2843 31 31 24.2843 31 16C31 7.71573 24.2843 1 16 1C7.71573 1 1 7.71573 1 16C1 19.4127 2.13966 22.5592 4.05915 25.0797C7.00313 21.7018 8.34666 18.7525 8.6388 15.551C8.773 14.0813 9.3037 12.322 10.1205 10.8057C10.9372 9.28924 12.0422 8.02604 13.2441 7.4605C14.425 6.90491 15.735 6.62997 17.0465 6.625L17.0466 6.62516C17.1341 6.62479 17.2218 6.62639 17.3092 6.62853C20.3858 6.70119 23.4184 8.25077 24.742 11.1115C26.1887 14.2386 25.12 18.293 21.901 19.7634C19.5249 20.849 16.4512 20.0292 15.3528 17.5779C14.5551 15.7978 15.1721 13.4978 16.9948 12.6938C18.2929 12.1213 19.9656 12.5764 20.5382 13.9035L20.5499 13.9303L20.5649 13.9554C21.0934 14.8708 20.7688 15.6889 20.3292 16.0423C20.1094 16.219 19.8922 16.2681 19.6937 16.2111C19.4953 16.1539 19.2452 15.9729 19.0316 15.4508L18.1069 15.8284C18.3989 16.5423 18.8662 17.0132 19.4179 17.1718C19.9695 17.3304 20.5354 17.1593 20.9563 16.821C21.7868 16.1532 22.1681 14.7941 21.4563 13.5075C21.4522 13.498 21.4476 13.4889 21.443 13.4799C21.439 13.472 21.4349 13.464 21.4312 13.4557C20.5973 11.6105 18.3433 11.0071 16.5919 11.7798C14.2112 12.8298 13.4322 15.7366 14.4399 17.9855C14.4943 18.107 14.557 18.2214 14.6196 18.3357C14.6249 18.3454 14.6302 18.3551 14.6355 18.3648C14.3857 19.9438 13.1854 22.2245 11.3882 24.6123C10.385 25.9451 9.20557 27.316 7.92763 28.6449C10.2581 30.1357 13.0281 31 16 31ZM5.42209 26.6352C5.68585 26.3542 5.94205 26.0731 6.19091 25.7919C7.31305 24.4664 8.02633 22.8246 8.52359 21.0883L8.52022 21.0867C7.48864 22.6905 6.24238 24.297 4.73648 25.9065C4.95694 26.157 5.18561 26.4 5.42209 26.6352ZM16.172 8.10213C16.0092 8.07229 15.8419 8.05555 15.6687 8.05368L15.6687 8.05363C15.2 8.04855 14.6868 8.15592 14.1019 8.43459C13.6128 8.69312 13.1544 9.01628 12.7358 9.39195C11.9766 10.0734 11.3378 10.9251 10.8512 11.8884C10.6872 12.2766 10.6113 12.6302 10.5954 12.9694C10.5697 13.5179 10.7041 14.0581 10.9532 14.6654C11.3076 12.8406 12.2022 11.2131 13.403 10.1356C14.6046 9.05718 16.0868 8.51988 17.7255 8.81059C17.2393 8.4632 16.7254 8.20361 16.172 8.10213ZM24.0094 15.1634C24.0858 13.6237 23.4554 12.0895 22.247 11.3855L22.2437 11.3903C22.4413 11.702 22.5968 12.0439 22.7169 12.3912C22.9876 13.1742 23.087 14.0021 23.0096 14.7137C23.0174 14.846 23.0178 14.9794 23.0112 15.113C22.9506 16.3328 22.3494 17.5098 20.8541 18.064L20.8591 18.0773C21.6317 18.3252 22.8651 17.9737 23.5329 16.9612C23.824 16.3918 23.9792 15.7726 24.0094 15.1634ZM13.2139 14.1959C13.4196 13.3405 13.871 12.4898 14.9931 11.4556C14.5185 11.5353 14.0982 11.656 13.714 11.8934C13.2379 12.1877 12.7844 12.6701 12.3511 13.581H12.3495C12.3085 13.7084 12.273 13.8353 12.2425 13.962C12.0408 14.8009 12.0483 15.6008 12.056 16.4151C12.0578 16.6144 12.0597 16.8145 12.0585 17.0163C12.0466 19.0694 11.8148 21.3818 8.37976 25.2072L8.38313 25.2088C9.64761 24.4 10.9415 23.0367 12.0703 21.6063C12.0704 21.606 12.0706 21.6058 12.0709 21.6056C12.0713 21.6053 12.0717 21.6051 12.0719 21.6047C12.9215 19.7789 13.051 18.2951 13.0585 17.0231C13.0597 16.813 13.0585 16.6096 13.0574 16.4118C13.0526 15.6008 13.0484 14.8846 13.2139 14.1959Z" fill="#047857"/>
</svg>
