<svg width="32" height="32" viewBox="0 0 32 32" fill="none" xmlns="http://www.w3.org/2000/svg">
<circle cx="16" cy="16" r="16" fill="white"/>
<path fill-rule="evenodd" clip-rule="evenodd" d="M16 30C23.732 30 30 23.732 30 16C30 8.26801 23.732 2 16 2C8.26801 2 2 8.26801 2 16C2 19.1852 3.06368 22.1219 4.85521 24.4744C7.60292 21.3217 8.85688 18.569 9.12954 15.5809C9.2548 14.2092 9.75012 12.5672 10.5124 11.152C11.2747 9.73662 12.3061 8.55764 13.4278 8.0298C14.53 7.51125 15.7527 7.25464 16.9768 7.25L16.9769 7.25015C17.0585 7.2498 17.1403 7.2513 17.2219 7.25329C20.0934 7.32111 22.9238 8.76738 24.1592 11.4374C25.5094 14.356 24.512 18.1402 21.5076 19.5125C19.2899 20.5257 16.4211 19.7606 15.396 17.4727C14.6514 15.8112 15.2273 13.6646 16.9285 12.9142C18.1401 12.3798 19.7013 12.8047 20.2356 14.0433L20.2466 14.0682L20.2606 14.0917C20.7538 14.9461 20.4509 15.7096 20.0406 16.0395C19.8354 16.2044 19.6327 16.2503 19.4475 16.1971C19.2623 16.1437 19.0288 15.9747 18.8295 15.4874L17.9665 15.8398C18.239 16.5062 18.6751 16.9456 19.19 17.0936C19.7048 17.2417 20.233 17.0821 20.6259 16.7663C21.401 16.143 21.7569 14.8745 21.0926 13.6737C21.0887 13.6648 21.0844 13.6564 21.0801 13.6479C21.0764 13.6405 21.0726 13.6331 21.0691 13.6253C20.2908 11.9032 18.1871 11.34 16.5525 12.0611C14.3305 13.0412 13.6033 15.7542 14.5439 17.8531C14.5947 17.9666 14.6532 18.0733 14.7116 18.18C14.7166 18.189 14.7215 18.1981 14.7265 18.2071C14.4934 19.6809 13.373 21.8095 11.6956 24.0381C10.7594 25.282 9.65853 26.5616 8.46579 27.8019C10.6409 29.1934 13.2263 30 16 30ZM6.12729 25.9262C6.37346 25.6639 6.61258 25.4016 6.84485 25.1391C7.89218 23.902 8.55791 22.3696 9.02202 20.7491L9.01887 20.7476C8.05606 22.2445 6.89289 23.7439 5.48738 25.2461C5.69314 25.4798 5.90657 25.7067 6.12729 25.9262ZM16.1605 8.62865C16.0085 8.6008 15.8525 8.58518 15.6908 8.58344L15.6908 8.58339C15.2533 8.57865 14.7744 8.67885 14.2284 8.93895C13.7719 9.18024 13.3441 9.48186 12.9534 9.83249C12.2448 10.4685 11.6486 11.2634 11.1944 12.1625C11.0414 12.5249 10.9705 12.8549 10.9557 13.1714C10.9317 13.6833 11.0572 14.1876 11.2896 14.7544C11.6204 13.0513 12.4554 11.5323 13.5761 10.5266C14.6976 9.52004 16.0811 9.01855 17.6104 9.28988C17.1567 8.96565 16.6771 8.72337 16.1605 8.62865ZM23.4755 15.2191C23.5468 13.7821 22.9584 12.3502 21.8305 11.6931L21.8274 11.6976C22.0119 11.9885 22.157 12.3076 22.2691 12.6318C22.5217 13.3626 22.6146 14.1353 22.5423 14.7995C22.5495 14.923 22.55 15.0474 22.5438 15.1722C22.4873 16.3106 21.9261 17.4091 20.5305 17.9264L20.5351 17.9389C21.2563 18.1702 22.4075 17.8421 23.0307 16.8971C23.3024 16.3657 23.4473 15.7878 23.4755 15.2191ZM13.3997 14.3162C13.5917 13.5178 14.013 12.7238 15.0602 11.7586C14.6172 11.833 14.225 11.9456 13.8664 12.1672C13.422 12.4419 12.9988 12.8921 12.5944 13.7423H12.5929C12.5546 13.8612 12.5214 13.9796 12.493 14.0978C12.3048 14.8809 12.3118 15.6274 12.3189 16.3874C12.3206 16.5734 12.3224 16.7602 12.3213 16.9486C12.3101 18.8648 12.0938 21.023 8.88777 24.5934L8.89092 24.5949C10.0711 23.84 11.2787 22.5676 12.3323 21.2325C12.3324 21.2323 12.3326 21.2321 12.3328 21.2319C12.3332 21.2316 12.3336 21.2314 12.3338 21.231C13.1267 19.527 13.2476 18.1421 13.2546 16.9548C13.2557 16.7588 13.2546 16.569 13.2535 16.3844C13.2491 15.6274 13.2452 14.959 13.3997 14.3162Z" fill="#10B981"/>
</svg>
