<svg width="32" height="32" viewBox="0 0 32 32" fill="none" xmlns="http://www.w3.org/2000/svg">
<circle cx="16" cy="16" r="16" fill="white"/>
<path fill-rule="evenodd" clip-rule="evenodd" d="M30 16C30 23.732 23.732 30 16 30C13.2263 30 10.6409 29.1934 8.46579 27.8019C9.65853 26.5616 10.7594 25.282 11.6956 24.0381C13.373 21.8095 14.4934 19.6809 14.7265 18.2071L14.7116 18.18L14.7116 18.1799C14.6532 18.0733 14.5947 17.9665 14.5439 17.8531C13.6033 15.7542 14.3305 13.0412 16.5525 12.0611C18.1871 11.34 20.2908 11.9032 21.0691 13.6253C21.0726 13.6331 21.0764 13.6405 21.0801 13.6479L21.0802 13.648C21.0845 13.6564 21.0887 13.6648 21.0926 13.6737C21.7569 14.8745 21.401 16.143 20.6259 16.7663C20.233 17.0821 19.7048 17.2417 19.19 17.0936C18.6751 16.9456 18.239 16.5062 17.9665 15.8398L18.8295 15.4874C19.0288 15.9747 19.2623 16.1437 19.4475 16.1971C19.6327 16.2503 19.8354 16.2044 20.0406 16.0395C20.4509 15.7096 20.7538 14.9461 20.2606 14.0917L20.2466 14.0682L20.2356 14.0433C19.7013 12.8047 18.1401 12.3798 16.9285 12.9142C15.2273 13.6646 14.6514 15.8112 15.396 17.4727C16.4211 19.7606 19.2899 20.5257 21.5076 19.5125C24.512 18.1402 25.5094 14.356 24.1592 11.4374C22.9238 8.76738 20.0934 7.32111 17.2219 7.25329C17.1403 7.2513 17.0585 7.2498 16.9769 7.25015L16.9768 7.25C15.7527 7.25464 14.53 7.51125 13.4278 8.0298C12.3061 8.55764 11.2747 9.73662 10.5124 11.152C9.75012 12.5672 9.2548 14.2092 9.12954 15.5809C8.85688 18.569 7.60292 21.3217 4.85521 24.4744C3.06368 22.1219 2 19.1852 2 16C2 8.26801 8.26801 2 16 2C23.732 2 30 8.26801 30 16Z" fill="#065F46"/>
</svg>
